<mxfile host="app.diagrams.net" modified="2024-05-16T20:40:59.055Z" agent="Mozilla/5.0 (Macintosh; Intel Mac OS X 10_15_7) AppleWebKit/605.1.15 (KHTML, like Gecko) Version/17.3 Safari/605.1.15" etag="6YMoXStPOCjqVH5XwzxO" version="24.3.0" type="github">
  <diagram name="Page-1" id="2YBvvXClWsGukQMizWep">
    <mxGraphModel dx="1080" dy="728" grid="1" gridSize="10" guides="1" tooltips="1" connect="1" arrows="1" fold="1" page="1" pageScale="1" pageWidth="850" pageHeight="1100" math="0" shadow="0">
      <root>
        <mxCell id="0" />
        <mxCell id="1" parent="0" />
        <mxCell id="0Wn4z3HdOxDBrsjznylW-1" value="" style="shape=umlLifeline;perimeter=lifelinePerimeter;whiteSpace=wrap;html=1;container=1;dropTarget=0;collapsible=0;recursiveResize=0;outlineConnect=0;portConstraint=eastwest;newEdgeStyle={&quot;curved&quot;:0,&quot;rounded&quot;:0};participant=umlActor;" vertex="1" parent="1">
          <mxGeometry x="70" y="30" width="20" height="1730" as="geometry" />
        </mxCell>
        <mxCell id="0Wn4z3HdOxDBrsjznylW-5" value=":controller" style="shape=umlLifeline;perimeter=lifelinePerimeter;whiteSpace=wrap;html=1;container=1;dropTarget=0;collapsible=0;recursiveResize=0;outlineConnect=0;portConstraint=eastwest;newEdgeStyle={&quot;curved&quot;:0,&quot;rounded&quot;:0};" vertex="1" parent="1">
          <mxGeometry x="200" y="40" width="100" height="1710" as="geometry" />
        </mxCell>
        <mxCell id="0Wn4z3HdOxDBrsjznylW-7" value="" style="html=1;points=[[0,0,0,0,5],[0,1,0,0,-5],[1,0,0,0,5],[1,1,0,0,-5]];perimeter=orthogonalPerimeter;outlineConnect=0;targetShapes=umlLifeline;portConstraint=eastwest;newEdgeStyle={&quot;curved&quot;:0,&quot;rounded&quot;:0};" vertex="1" parent="0Wn4z3HdOxDBrsjznylW-5">
          <mxGeometry x="45" y="80" width="10" height="30" as="geometry" />
        </mxCell>
        <mxCell id="0Wn4z3HdOxDBrsjznylW-13" value="" style="html=1;points=[[0,0,0,0,5],[0,1,0,0,-5],[1,0,0,0,5],[1,1,0,0,-5]];perimeter=orthogonalPerimeter;outlineConnect=0;targetShapes=umlLifeline;portConstraint=eastwest;newEdgeStyle={&quot;curved&quot;:0,&quot;rounded&quot;:0};" vertex="1" parent="0Wn4z3HdOxDBrsjznylW-5">
          <mxGeometry x="45" y="160" width="10" height="80" as="geometry" />
        </mxCell>
        <mxCell id="0Wn4z3HdOxDBrsjznylW-32" value="" style="html=1;points=[[0,0,0,0,5],[0,1,0,0,-5],[1,0,0,0,5],[1,1,0,0,-5]];perimeter=orthogonalPerimeter;outlineConnect=0;targetShapes=umlLifeline;portConstraint=eastwest;newEdgeStyle={&quot;curved&quot;:0,&quot;rounded&quot;:0};" vertex="1" parent="0Wn4z3HdOxDBrsjznylW-5">
          <mxGeometry x="45" y="410" width="10" height="200" as="geometry" />
        </mxCell>
        <mxCell id="0Wn4z3HdOxDBrsjznylW-6" value="registration(login,password)" style="html=1;verticalAlign=bottom;endArrow=block;curved=0;rounded=0;" edge="1" parent="1" target="0Wn4z3HdOxDBrsjznylW-5">
          <mxGeometry width="80" relative="1" as="geometry">
            <mxPoint x="80" y="120" as="sourcePoint" />
            <mxPoint x="160" y="120" as="targetPoint" />
          </mxGeometry>
        </mxCell>
        <mxCell id="0Wn4z3HdOxDBrsjznylW-8" value=":car" style="shape=umlLifeline;perimeter=lifelinePerimeter;whiteSpace=wrap;html=1;container=1;dropTarget=0;collapsible=0;recursiveResize=0;outlineConnect=0;portConstraint=eastwest;newEdgeStyle={&quot;curved&quot;:0,&quot;rounded&quot;:0};" vertex="1" parent="1">
          <mxGeometry x="370" y="40" width="100" height="1660" as="geometry" />
        </mxCell>
        <mxCell id="0Wn4z3HdOxDBrsjznylW-18" value="" style="html=1;points=[[0,0,0,0,5],[0,1,0,0,-5],[1,0,0,0,5],[1,1,0,0,-5]];perimeter=orthogonalPerimeter;outlineConnect=0;targetShapes=umlLifeline;portConstraint=eastwest;newEdgeStyle={&quot;curved&quot;:0,&quot;rounded&quot;:0};" vertex="1" parent="0Wn4z3HdOxDBrsjznylW-8">
          <mxGeometry x="45" y="280" width="10" height="40" as="geometry" />
        </mxCell>
        <mxCell id="0Wn4z3HdOxDBrsjznylW-9" value=":account" style="shape=umlLifeline;perimeter=lifelinePerimeter;whiteSpace=wrap;html=1;container=1;dropTarget=0;collapsible=0;recursiveResize=0;outlineConnect=0;portConstraint=eastwest;newEdgeStyle={&quot;curved&quot;:0,&quot;rounded&quot;:0};" vertex="1" parent="1">
          <mxGeometry x="560" y="110" width="100" height="1190" as="geometry" />
        </mxCell>
        <mxCell id="0Wn4z3HdOxDBrsjznylW-14" value="" style="html=1;points=[[0,0,0,0,5],[0,1,0,0,-5],[1,0,0,0,5],[1,1,0,0,-5]];perimeter=orthogonalPerimeter;outlineConnect=0;targetShapes=umlLifeline;portConstraint=eastwest;newEdgeStyle={&quot;curved&quot;:0,&quot;rounded&quot;:0};" vertex="1" parent="0Wn4z3HdOxDBrsjznylW-9">
          <mxGeometry x="45" y="110" width="10" height="80" as="geometry" />
        </mxCell>
        <mxCell id="0Wn4z3HdOxDBrsjznylW-34" value="" style="html=1;points=[[0,0,0,0,5],[0,1,0,0,-5],[1,0,0,0,5],[1,1,0,0,-5]];perimeter=orthogonalPerimeter;outlineConnect=0;targetShapes=umlLifeline;portConstraint=eastwest;newEdgeStyle={&quot;curved&quot;:0,&quot;rounded&quot;:0};" vertex="1" parent="0Wn4z3HdOxDBrsjznylW-9">
          <mxGeometry x="45" y="360" width="10" height="30" as="geometry" />
        </mxCell>
        <mxCell id="0Wn4z3HdOxDBrsjznylW-36" value="" style="html=1;points=[[0,0,0,0,5],[0,1,0,0,-5],[1,0,0,0,5],[1,1,0,0,-5]];perimeter=orthogonalPerimeter;outlineConnect=0;targetShapes=umlLifeline;portConstraint=eastwest;newEdgeStyle={&quot;curved&quot;:0,&quot;rounded&quot;:0};" vertex="1" parent="0Wn4z3HdOxDBrsjznylW-9">
          <mxGeometry x="45" y="420" width="10" height="40" as="geometry" />
        </mxCell>
        <mxCell id="0Wn4z3HdOxDBrsjznylW-45" value="" style="html=1;points=[[0,0,0,0,5],[0,1,0,0,-5],[1,0,0,0,5],[1,1,0,0,-5]];perimeter=orthogonalPerimeter;outlineConnect=0;targetShapes=umlLifeline;portConstraint=eastwest;newEdgeStyle={&quot;curved&quot;:0,&quot;rounded&quot;:0};" vertex="1" parent="0Wn4z3HdOxDBrsjznylW-9">
          <mxGeometry x="45" y="500" width="10" height="30" as="geometry" />
        </mxCell>
        <mxCell id="0Wn4z3HdOxDBrsjznylW-10" value="create" style="html=1;verticalAlign=bottom;endArrow=open;dashed=1;endSize=8;curved=0;rounded=0;" edge="1" parent="1">
          <mxGeometry relative="1" as="geometry">
            <mxPoint x="249.5" y="130" as="sourcePoint" />
            <mxPoint x="560" y="130" as="targetPoint" />
          </mxGeometry>
        </mxCell>
        <mxCell id="0Wn4z3HdOxDBrsjznylW-11" value=":parking" style="shape=umlLifeline;perimeter=lifelinePerimeter;whiteSpace=wrap;html=1;container=1;dropTarget=0;collapsible=0;recursiveResize=0;outlineConnect=0;portConstraint=eastwest;newEdgeStyle={&quot;curved&quot;:0,&quot;rounded&quot;:0};" vertex="1" parent="1">
          <mxGeometry x="830" y="40" width="100" height="1730" as="geometry" />
        </mxCell>
        <mxCell id="0Wn4z3HdOxDBrsjznylW-28" value="" style="html=1;points=[[0,0,0,0,5],[0,1,0,0,-5],[1,0,0,0,5],[1,1,0,0,-5]];perimeter=orthogonalPerimeter;outlineConnect=0;targetShapes=umlLifeline;portConstraint=eastwest;newEdgeStyle={&quot;curved&quot;:0,&quot;rounded&quot;:0};" vertex="1" parent="0Wn4z3HdOxDBrsjznylW-11">
          <mxGeometry x="45" y="300" width="10" height="80" as="geometry" />
        </mxCell>
        <mxCell id="0Wn4z3HdOxDBrsjznylW-29" value="parking_on_free_lot" style="html=1;align=left;spacingLeft=2;endArrow=block;rounded=0;edgeStyle=orthogonalEdgeStyle;curved=0;rounded=0;" edge="1" target="0Wn4z3HdOxDBrsjznylW-28" parent="0Wn4z3HdOxDBrsjznylW-11">
          <mxGeometry x="-0.0065" relative="1" as="geometry">
            <mxPoint x="55" y="320" as="sourcePoint" />
            <Array as="points">
              <mxPoint x="85" y="350" />
            </Array>
            <mxPoint as="offset" />
          </mxGeometry>
        </mxCell>
        <mxCell id="0Wn4z3HdOxDBrsjznylW-12" value="input_card(number,date,cvv)" style="html=1;verticalAlign=bottom;endArrow=block;curved=0;rounded=0;" edge="1" parent="1" target="0Wn4z3HdOxDBrsjznylW-5">
          <mxGeometry width="80" relative="1" as="geometry">
            <mxPoint x="80" y="200" as="sourcePoint" />
            <mxPoint x="160" y="200" as="targetPoint" />
          </mxGeometry>
        </mxCell>
        <mxCell id="0Wn4z3HdOxDBrsjznylW-15" value="input_card(number, date,cvv)" style="html=1;verticalAlign=bottom;endArrow=block;curved=0;rounded=0;" edge="1" parent="1" source="0Wn4z3HdOxDBrsjznylW-13">
          <mxGeometry width="80" relative="1" as="geometry">
            <mxPoint x="260" y="220" as="sourcePoint" />
            <mxPoint x="610" y="220" as="targetPoint" />
          </mxGeometry>
        </mxCell>
        <mxCell id="0Wn4z3HdOxDBrsjznylW-16" value=":card" style="shape=umlLifeline;perimeter=lifelinePerimeter;whiteSpace=wrap;html=1;container=1;dropTarget=0;collapsible=0;recursiveResize=0;outlineConnect=0;portConstraint=eastwest;newEdgeStyle={&quot;curved&quot;:0,&quot;rounded&quot;:0};" vertex="1" parent="1">
          <mxGeometry x="670" y="235" width="100" height="1535" as="geometry" />
        </mxCell>
        <mxCell id="0Wn4z3HdOxDBrsjznylW-38" value="" style="html=1;points=[[0,0,0,0,5],[0,1,0,0,-5],[1,0,0,0,5],[1,1,0,0,-5]];perimeter=orthogonalPerimeter;outlineConnect=0;targetShapes=umlLifeline;portConstraint=eastwest;newEdgeStyle={&quot;curved&quot;:0,&quot;rounded&quot;:0};" vertex="1" parent="0Wn4z3HdOxDBrsjznylW-16">
          <mxGeometry x="45" y="305" width="10" height="25" as="geometry" />
        </mxCell>
        <mxCell id="0Wn4z3HdOxDBrsjznylW-17" value="create" style="html=1;verticalAlign=bottom;endArrow=open;dashed=1;endSize=8;curved=0;rounded=0;" edge="1" parent="1">
          <mxGeometry relative="1" as="geometry">
            <mxPoint x="620" y="261" as="sourcePoint" />
            <mxPoint x="670" y="260.5" as="targetPoint" />
          </mxGeometry>
        </mxCell>
        <mxCell id="0Wn4z3HdOxDBrsjznylW-22" value="" style="endArrow=open;endFill=1;endSize=12;html=1;rounded=0;" edge="1" parent="1" source="0Wn4z3HdOxDBrsjznylW-18">
          <mxGeometry width="160" relative="1" as="geometry">
            <mxPoint x="430" y="339" as="sourcePoint" />
            <mxPoint x="875" y="339.29" as="targetPoint" />
          </mxGeometry>
        </mxCell>
        <mxCell id="0Wn4z3HdOxDBrsjznylW-23" value="parking" style="edgeLabel;html=1;align=center;verticalAlign=middle;resizable=0;points=[];" vertex="1" connectable="0" parent="0Wn4z3HdOxDBrsjznylW-22">
          <mxGeometry x="0.1308" y="4" relative="1" as="geometry">
            <mxPoint x="1" y="-5" as="offset" />
          </mxGeometry>
        </mxCell>
        <mxCell id="0Wn4z3HdOxDBrsjznylW-30" value="code" style="html=1;verticalAlign=bottom;endArrow=open;dashed=1;endSize=8;curved=0;rounded=0;" edge="1" parent="1" target="0Wn4z3HdOxDBrsjznylW-1">
          <mxGeometry relative="1" as="geometry">
            <mxPoint x="880" y="410" as="sourcePoint" />
            <mxPoint x="800" y="410" as="targetPoint" />
          </mxGeometry>
        </mxCell>
        <mxCell id="0Wn4z3HdOxDBrsjznylW-31" value="end_movement" style="html=1;verticalAlign=bottom;endArrow=block;curved=0;rounded=0;" edge="1" parent="1" source="0Wn4z3HdOxDBrsjznylW-1">
          <mxGeometry width="80" relative="1" as="geometry">
            <mxPoint x="340" y="320" as="sourcePoint" />
            <mxPoint x="420" y="320" as="targetPoint" />
          </mxGeometry>
        </mxCell>
        <mxCell id="0Wn4z3HdOxDBrsjznylW-33" value="enter_code(code)" style="html=1;verticalAlign=bottom;endArrow=block;curved=0;rounded=0;" edge="1" parent="1" source="0Wn4z3HdOxDBrsjznylW-1">
          <mxGeometry x="0.0064" width="80" relative="1" as="geometry">
            <mxPoint x="170" y="450" as="sourcePoint" />
            <mxPoint x="250" y="450" as="targetPoint" />
            <mxPoint as="offset" />
          </mxGeometry>
        </mxCell>
        <mxCell id="0Wn4z3HdOxDBrsjznylW-35" value="time_start" style="html=1;verticalAlign=bottom;endArrow=block;curved=0;rounded=0;" edge="1" parent="1" source="0Wn4z3HdOxDBrsjznylW-32">
          <mxGeometry width="80" relative="1" as="geometry">
            <mxPoint x="260" y="470" as="sourcePoint" />
            <mxPoint x="610" y="470" as="targetPoint" />
          </mxGeometry>
        </mxCell>
        <mxCell id="0Wn4z3HdOxDBrsjznylW-37" value="pay" style="html=1;verticalAlign=bottom;endArrow=block;curved=0;rounded=0;" edge="1" parent="1" source="0Wn4z3HdOxDBrsjznylW-32">
          <mxGeometry x="0.0028" width="80" relative="1" as="geometry">
            <mxPoint x="530" y="530" as="sourcePoint" />
            <mxPoint x="610" y="530" as="targetPoint" />
            <mxPoint as="offset" />
          </mxGeometry>
        </mxCell>
        <mxCell id="0Wn4z3HdOxDBrsjznylW-42" value="" style="endArrow=open;endFill=1;endSize=12;html=1;rounded=0;" edge="1" parent="1">
          <mxGeometry width="160" relative="1" as="geometry">
            <mxPoint x="620" y="540" as="sourcePoint" />
            <mxPoint x="720" y="540" as="targetPoint" />
          </mxGeometry>
        </mxCell>
        <mxCell id="0Wn4z3HdOxDBrsjznylW-43" value="withdraw_money" style="edgeLabel;html=1;align=center;verticalAlign=middle;resizable=0;points=[];" vertex="1" connectable="0" parent="0Wn4z3HdOxDBrsjznylW-42">
          <mxGeometry x="-0.24" y="2" relative="1" as="geometry">
            <mxPoint x="2" y="-8" as="offset" />
          </mxGeometry>
        </mxCell>
        <mxCell id="0Wn4z3HdOxDBrsjznylW-44" value="paid_time" style="html=1;verticalAlign=bottom;endArrow=open;dashed=1;endSize=8;curved=0;rounded=0;" edge="1" parent="1" target="0Wn4z3HdOxDBrsjznylW-32">
          <mxGeometry relative="1" as="geometry">
            <mxPoint x="610" y="570" as="sourcePoint" />
            <mxPoint x="260" y="570" as="targetPoint" />
          </mxGeometry>
        </mxCell>
        <mxCell id="0Wn4z3HdOxDBrsjznylW-46" value="save_car_num(car_num)" style="html=1;verticalAlign=bottom;endArrow=block;curved=0;rounded=0;" edge="1" parent="1" source="0Wn4z3HdOxDBrsjznylW-5">
          <mxGeometry width="80" relative="1" as="geometry">
            <mxPoint x="530" y="610" as="sourcePoint" />
            <mxPoint x="610" y="610" as="targetPoint" />
          </mxGeometry>
        </mxCell>
        <mxCell id="0Wn4z3HdOxDBrsjznylW-47" value="user" style="text;html=1;align=center;verticalAlign=middle;resizable=0;points=[];autosize=1;strokeColor=none;fillColor=none;" vertex="1" parent="1">
          <mxGeometry x="55" width="50" height="30" as="geometry" />
        </mxCell>
        <mxCell id="0Wn4z3HdOxDBrsjznylW-48" value="" style="shape=umlLifeline;perimeter=lifelinePerimeter;whiteSpace=wrap;html=1;container=1;dropTarget=0;collapsible=0;recursiveResize=0;outlineConnect=0;portConstraint=eastwest;newEdgeStyle={&quot;curved&quot;:0,&quot;rounded&quot;:0};participant=umlActor;" vertex="1" parent="1">
          <mxGeometry x="1030" y="480" width="20" height="1300" as="geometry" />
        </mxCell>
        <mxCell id="0Wn4z3HdOxDBrsjznylW-49" value="inspector&amp;nbsp;" style="text;html=1;align=center;verticalAlign=middle;resizable=0;points=[];autosize=1;strokeColor=none;fillColor=none;" vertex="1" parent="1">
          <mxGeometry x="1000" y="442.5" width="80" height="30" as="geometry" />
        </mxCell>
        <mxCell id="0Wn4z3HdOxDBrsjznylW-53" value="loop" style="shape=umlFrame;whiteSpace=wrap;html=1;pointerEvents=0;" vertex="1" parent="1">
          <mxGeometry x="100" y="690" width="1220" height="690" as="geometry" />
        </mxCell>
        <mxCell id="0Wn4z3HdOxDBrsjznylW-54" value="every 30 min" style="text;html=1;align=center;verticalAlign=middle;resizable=0;points=[];autosize=1;strokeColor=none;fillColor=none;" vertex="1" parent="1">
          <mxGeometry x="105" y="720" width="90" height="30" as="geometry" />
        </mxCell>
        <mxCell id="0Wn4z3HdOxDBrsjznylW-56" value="opt" style="shape=umlFrame;whiteSpace=wrap;html=1;pointerEvents=0;" vertex="1" parent="1">
          <mxGeometry x="120" y="760" width="1130" height="590" as="geometry" />
        </mxCell>
        <mxCell id="0Wn4z3HdOxDBrsjznylW-61" value="if car exist and account exist" style="text;html=1;align=center;verticalAlign=middle;resizable=0;points=[];autosize=1;strokeColor=none;fillColor=none;" vertex="1" parent="1">
          <mxGeometry x="75" y="790" width="170" height="30" as="geometry" />
        </mxCell>
        <mxCell id="0Wn4z3HdOxDBrsjznylW-63" value="" style="html=1;points=[[0,0,0,0,5],[0,1,0,0,-5],[1,0,0,0,5],[1,1,0,0,-5]];perimeter=orthogonalPerimeter;outlineConnect=0;targetShapes=umlLifeline;portConstraint=eastwest;newEdgeStyle={&quot;curved&quot;:0,&quot;rounded&quot;:0};" vertex="1" parent="1">
          <mxGeometry x="245" y="820" width="10" height="480" as="geometry" />
        </mxCell>
        <mxCell id="0Wn4z3HdOxDBrsjznylW-64" value="" style="endArrow=open;endFill=1;endSize=12;html=1;rounded=0;entryX=0;entryY=0;entryDx=0;entryDy=5;entryPerimeter=0;" edge="1" parent="1" target="0Wn4z3HdOxDBrsjznylW-63">
          <mxGeometry width="160" relative="1" as="geometry">
            <mxPoint x="1040" y="820" as="sourcePoint" />
            <mxPoint x="980" y="850" as="targetPoint" />
          </mxGeometry>
        </mxCell>
        <mxCell id="0Wn4z3HdOxDBrsjznylW-65" value="check_car(CarNum_scanned)" style="edgeLabel;html=1;align=center;verticalAlign=middle;resizable=0;points=[];" vertex="1" connectable="0" parent="0Wn4z3HdOxDBrsjznylW-64">
          <mxGeometry x="-0.0908" relative="1" as="geometry">
            <mxPoint x="-68" y="-15" as="offset" />
          </mxGeometry>
        </mxCell>
        <mxCell id="0Wn4z3HdOxDBrsjznylW-69" value="opt" style="shape=umlFrame;whiteSpace=wrap;html=1;pointerEvents=0;" vertex="1" parent="1">
          <mxGeometry x="160" y="950" width="1010" height="380" as="geometry" />
        </mxCell>
        <mxCell id="0Wn4z3HdOxDBrsjznylW-70" value="if car_num&amp;nbsp;&lt;div&gt;not in&lt;div&gt;&amp;nbsp;CarNum_scanned&lt;/div&gt;&lt;/div&gt;" style="text;html=1;align=center;verticalAlign=middle;resizable=0;points=[];autosize=1;strokeColor=none;fillColor=none;" vertex="1" parent="1">
          <mxGeometry x="135" y="980" width="120" height="60" as="geometry" />
        </mxCell>
        <mxCell id="0Wn4z3HdOxDBrsjznylW-73" value="" style="html=1;points=[[0,0,0,0,5],[0,1,0,0,-5],[1,0,0,0,5],[1,1,0,0,-5]];perimeter=orthogonalPerimeter;outlineConnect=0;targetShapes=umlLifeline;portConstraint=eastwest;newEdgeStyle={&quot;curved&quot;:0,&quot;rounded&quot;:0};" vertex="1" parent="1">
          <mxGeometry x="605" y="1020" width="10" height="130" as="geometry" />
        </mxCell>
        <mxCell id="0Wn4z3HdOxDBrsjznylW-74" value="end_time" style="html=1;verticalAlign=bottom;endArrow=block;curved=0;rounded=0;" edge="1" parent="1" source="0Wn4z3HdOxDBrsjznylW-63">
          <mxGeometry width="80" relative="1" as="geometry">
            <mxPoint x="360" y="1020" as="sourcePoint" />
            <mxPoint x="605" y="1020" as="targetPoint" />
          </mxGeometry>
        </mxCell>
        <mxCell id="0Wn4z3HdOxDBrsjznylW-79" value="difference" style="html=1;verticalAlign=bottom;endArrow=open;dashed=1;endSize=8;curved=0;rounded=0;" edge="1" parent="1" target="0Wn4z3HdOxDBrsjznylW-63">
          <mxGeometry relative="1" as="geometry">
            <mxPoint x="605" y="1150" as="sourcePoint" />
            <mxPoint x="525" y="1150" as="targetPoint" />
            <mxPoint as="offset" />
          </mxGeometry>
        </mxCell>
        <mxCell id="0Wn4z3HdOxDBrsjznylW-80" value="opt" style="shape=umlFrame;whiteSpace=wrap;html=1;pointerEvents=0;" vertex="1" parent="1">
          <mxGeometry x="170" y="1170" width="480" height="110" as="geometry" />
        </mxCell>
        <mxCell id="0Wn4z3HdOxDBrsjznylW-81" value="if&amp;nbsp;&lt;div&gt;difference &amp;gt; 0&lt;/div&gt;" style="text;html=1;align=center;verticalAlign=middle;resizable=0;points=[];autosize=1;strokeColor=none;fillColor=none;" vertex="1" parent="1">
          <mxGeometry x="155" y="1203" width="100" height="40" as="geometry" />
        </mxCell>
        <mxCell id="0Wn4z3HdOxDBrsjznylW-82" value="" style="html=1;points=[[0,0,0,0,5],[0,1,0,0,-5],[1,0,0,0,5],[1,1,0,0,-5]];perimeter=orthogonalPerimeter;outlineConnect=0;targetShapes=umlLifeline;portConstraint=eastwest;newEdgeStyle={&quot;curved&quot;:0,&quot;rounded&quot;:0};" vertex="1" parent="1">
          <mxGeometry x="605" y="1190" width="10" height="80" as="geometry" />
        </mxCell>
        <mxCell id="0Wn4z3HdOxDBrsjznylW-83" value="" style="endArrow=open;endFill=1;endSize=12;html=1;rounded=0;" edge="1" parent="1" source="0Wn4z3HdOxDBrsjznylW-63">
          <mxGeometry width="160" relative="1" as="geometry">
            <mxPoint x="360" y="1190" as="sourcePoint" />
            <mxPoint x="605" y="1190" as="targetPoint" />
          </mxGeometry>
        </mxCell>
        <mxCell id="0Wn4z3HdOxDBrsjznylW-84" value="fine" style="edgeLabel;html=1;align=center;verticalAlign=middle;resizable=0;points=[];" vertex="1" connectable="0" parent="0Wn4z3HdOxDBrsjznylW-83">
          <mxGeometry x="-0.0692" y="3" relative="1" as="geometry">
            <mxPoint y="-7" as="offset" />
          </mxGeometry>
        </mxCell>
        <mxCell id="0Wn4z3HdOxDBrsjznylW-85" value="fine" style="html=1;verticalAlign=bottom;endArrow=open;dashed=1;endSize=8;curved=0;rounded=0;" edge="1" parent="1" target="0Wn4z3HdOxDBrsjznylW-1">
          <mxGeometry x="-0.1828" relative="1" as="geometry">
            <mxPoint x="605" y="1270" as="sourcePoint" />
            <mxPoint x="80" y="1280" as="targetPoint" />
            <mxPoint as="offset" />
          </mxGeometry>
        </mxCell>
        <mxCell id="0Wn4z3HdOxDBrsjznylW-89" value="" style="endArrow=open;endFill=1;endSize=12;html=1;rounded=0;" edge="1" parent="1" target="0Wn4z3HdOxDBrsjznylW-90">
          <mxGeometry width="160" relative="1" as="geometry">
            <mxPoint x="255" y="860" as="sourcePoint" />
            <mxPoint x="415" y="860" as="targetPoint" />
          </mxGeometry>
        </mxCell>
        <mxCell id="0Wn4z3HdOxDBrsjznylW-90" value="" style="html=1;points=[[0,0,0,0,5],[0,1,0,0,-5],[1,0,0,0,5],[1,1,0,0,-5]];perimeter=orthogonalPerimeter;outlineConnect=0;targetShapes=umlLifeline;portConstraint=eastwest;newEdgeStyle={&quot;curved&quot;:0,&quot;rounded&quot;:0};" vertex="1" parent="1">
          <mxGeometry x="605" y="850" width="10" height="50" as="geometry" />
        </mxCell>
        <mxCell id="0Wn4z3HdOxDBrsjznylW-91" value="get_car_num(car_num)" style="text;html=1;align=center;verticalAlign=middle;resizable=0;points=[];autosize=1;strokeColor=none;fillColor=none;" vertex="1" parent="1">
          <mxGeometry x="395" y="828" width="150" height="30" as="geometry" />
        </mxCell>
        <mxCell id="0Wn4z3HdOxDBrsjznylW-93" value="destroy" style="html=1;verticalAlign=bottom;endArrow=open;dashed=1;endSize=8;curved=0;rounded=0;" edge="1" parent="1" source="0Wn4z3HdOxDBrsjznylW-94" target="0Wn4z3HdOxDBrsjznylW-9">
          <mxGeometry x="-1" y="-115" relative="1" as="geometry">
            <mxPoint x="255" y="1298.46" as="sourcePoint" />
            <mxPoint x="566" y="1298" as="targetPoint" />
            <mxPoint x="-115" y="-115" as="offset" />
          </mxGeometry>
        </mxCell>
        <mxCell id="0Wn4z3HdOxDBrsjznylW-95" value="" style="html=1;verticalAlign=bottom;endArrow=open;dashed=1;endSize=8;curved=0;rounded=0;" edge="1" parent="1" target="0Wn4z3HdOxDBrsjznylW-94">
          <mxGeometry relative="1" as="geometry">
            <mxPoint x="255" y="1298.46" as="sourcePoint" />
            <mxPoint x="610" y="1298" as="targetPoint" />
          </mxGeometry>
        </mxCell>
        <mxCell id="0Wn4z3HdOxDBrsjznylW-94" value="" style="shape=umlDestroy;whiteSpace=wrap;html=1;strokeWidth=3;targetShapes=umlLifeline;" vertex="1" parent="1">
          <mxGeometry x="595" y="1280" width="30" height="30" as="geometry" />
        </mxCell>
      </root>
    </mxGraphModel>
  </diagram>
</mxfile>
